<svg width="288" height="439" viewBox="0 0 288 439" fill="none" xmlns="http://www.w3.org/2000/svg">
<path d="M51.2253 158.616H17V105.978V31.4223V0.600006H78.7895H144.275M51.2253 158.616V158.697M51.2253 158.616C51.2253 110.294 88.0599 70.5744 135.183 66.0044M271.551 158.616V105.978V31.4223V0.600006H209.761H144.275M271.551 158.616H237.5M271.551 158.616H237.326M144.275 0.600006H128.767L134.275 56.75L134.573 59.786L134.764 61.7306L135.183 66.0044M144.275 0.600006H159.784L154.276 56.75L153.978 59.7859L153.787 61.7306L153.368 66.0044M237.326 158.616V158.697M237.326 158.616C237.326 110.294 200.491 70.5744 153.368 66.0044M135.183 66.0044L135.491 69.1489H144.275H153.06L153.368 66.0044" stroke="#2855AD" stroke-width="1.2"/>
<path opacity="0.4" d="M237.326 158.616C237.326 210.006 195.666 251.666 144.275 251.666M237.326 158.616H271.551V105.978M237.326 158.616V437.766M237.326 158.616V189.633M237.326 158.616C237.326 110.294 200.491 70.5744 153.368 66.0044M144.275 251.666C92.8853 251.666 51.2253 210.006 51.2253 158.616M144.275 251.666C92.8853 251.666 51.2253 293.326 51.2253 344.716M144.275 251.666C195.666 251.666 237.326 293.326 237.326 344.716M51.2253 158.616H17V105.978M51.2253 158.616V437.766M51.2253 158.616C51.2253 110.294 88.0599 70.5744 135.183 66.0044M51.2253 158.697V437.766M237.326 158.697V437.766M237.326 437.766H51.2253M135.491 69.1489L135.183 66.0044M135.491 69.1489H144.275M135.491 69.1489L144.275 158.63M153.06 69.1489L153.368 66.0044M153.06 69.1489H144.275M153.06 69.1489L144.275 158.63M246.63 158.616C246.63 145.068 243.945 131.798 238.868 119.516M41.9201 158.616C41.9201 145.068 44.6059 131.798 49.6826 119.516M237.326 344.716C237.326 396.106 195.666 437.766 144.275 437.766M237.326 344.716H51.2253M144.275 437.766C92.8853 437.766 51.2253 396.106 51.2253 344.716M144.275 437.766V158.63M144.275 0.600006H128.767L134.275 56.75M144.275 0.600006H159.784L154.276 56.75M144.275 0.600006H209.761M144.275 0.600006H78.7895M271.551 105.978V31.4223M271.551 105.978L238.868 119.516M271.551 31.4223V0.600006H209.761M271.551 31.4223L216.692 86.2808M209.761 0.600006L183.474 64.0639M78.7895 0.600006H17V31.4223M78.7895 0.600006L105.077 64.0638M17 31.4223V105.978M17 31.4223L71.8584 86.2806M17 105.978L49.6826 119.516M241.979 158.969C241.979 146.139 239.451 133.434 234.541 121.58C229.631 109.726 222.435 98.9555 213.362 89.8829C204.29 80.8104 193.519 73.6137 181.665 68.7037C172.751 65.0113 163.356 62.6665 153.787 61.7306M46.5733 158.969C46.5733 146.139 49.1004 133.434 54.0104 121.58C58.9204 109.726 66.1172 98.9555 75.1897 89.8829C84.2622 80.8104 95.0329 73.6137 106.887 68.7037C115.801 65.0114 125.196 62.6666 134.764 61.7306M243.932 158.969C243.932 145.882 241.355 132.923 236.347 120.832C231.338 108.741 223.998 97.7553 214.744 88.5013C205.49 79.2473 194.504 71.9067 182.413 66.8984C173.321 63.1323 163.737 60.7406 153.978 59.7859M44.619 158.969C44.619 145.882 47.1967 132.923 52.205 120.832C57.2132 108.741 64.5538 97.7553 73.8078 88.5013C83.0618 79.2473 94.0479 71.9067 106.139 66.8984C115.231 63.1324 124.814 60.7407 134.573 59.786M49.6826 119.516C54.7713 107.205 62.2622 95.8876 71.8584 86.2806M105.077 64.0638C92.7868 69.1589 81.4895 76.6495 71.8993 86.2397C71.8856 86.2533 71.872 86.2669 71.8584 86.2806M105.077 64.0638C114.347 60.2207 124.182 57.7405 134.275 56.75M134.275 56.75L134.573 59.786M154.276 56.75C164.369 57.7405 174.204 60.2208 183.474 64.0639M154.276 56.75L153.978 59.7859M183.474 64.0639C195.764 69.159 207.061 76.6496 216.651 86.2397C216.665 86.2534 216.679 86.2671 216.692 86.2808M238.868 119.516C233.779 107.205 226.288 95.8878 216.692 86.2808M135.183 66.0044L134.764 61.7306M134.764 61.7306L134.573 59.786M153.368 66.0044L153.787 61.7306M153.787 61.7306L153.978 59.7859M144.275 69.1489V158.63" stroke="#3561B9" stroke-width="0.534771"/>
<path d="M237.326 158.616H271.551V105.978M237.326 158.616V189.633M237.326 158.616C237.326 110.294 200.491 70.5744 153.368 66.0044M246.63 158.616C246.63 145.068 243.945 131.798 238.868 119.516M41.9201 158.616C41.9201 145.068 44.6059 131.798 49.6826 119.516M144.275 0.600006H128.767L134.275 56.75M144.275 0.600006H159.784L154.276 56.75M144.275 0.600006H209.761M144.275 0.600006H78.7895M271.551 105.978V31.4223M271.551 105.978L238.868 119.516M271.551 31.4223V0.600006H209.761M271.551 31.4223L216.692 86.2808M209.761 0.600006L183.474 64.0639M78.7895 0.600006H17V31.4223M78.7895 0.600006L105.077 64.0638M17 31.4223V105.978M17 31.4223L71.8584 86.2806M17 105.978V158.616H51.2253C51.2253 110.294 88.0599 70.5744 135.183 66.0044M17 105.978L49.6826 119.516M241.979 158.969C241.979 146.139 239.451 133.434 234.541 121.58C229.631 109.726 222.435 98.9555 213.362 89.8829C204.29 80.8104 193.519 73.6137 181.665 68.7037C172.751 65.0113 163.356 62.6665 153.787 61.7306M46.5733 158.969C46.5733 146.139 49.1004 133.434 54.0104 121.58C58.9204 109.726 66.1172 98.9555 75.1897 89.8829C84.2622 80.8104 95.0329 73.6137 106.887 68.7037C115.801 65.0114 125.196 62.6666 134.764 61.7306M243.932 158.969C243.932 145.882 241.355 132.923 236.347 120.832C231.338 108.741 223.998 97.7553 214.744 88.5013C205.49 79.2473 194.504 71.9067 182.413 66.8984C173.321 63.1323 163.737 60.7406 153.978 59.7859M44.619 158.969C44.619 145.882 47.1967 132.923 52.205 120.832C57.2132 108.741 64.5538 97.7553 73.8078 88.5013C83.0618 79.2473 94.0479 71.9067 106.139 66.8984C115.231 63.1324 124.814 60.7407 134.573 59.786M49.6826 119.516C54.7713 107.205 62.2622 95.8876 71.8584 86.2806M105.077 64.0638C92.7868 69.1589 81.4895 76.6495 71.8993 86.2397C71.8856 86.2533 71.872 86.2669 71.8584 86.2806M105.077 64.0638C114.347 60.2207 124.182 57.7405 134.275 56.75M134.275 56.75L134.573 59.786M154.276 56.75C164.369 57.7405 174.204 60.2208 183.474 64.0639M154.276 56.75L153.978 59.7859M183.474 64.0639C195.764 69.159 207.061 76.6496 216.651 86.2397C216.665 86.2534 216.679 86.2671 216.692 86.2808M238.868 119.516C233.779 107.205 226.288 95.8878 216.692 86.2808M135.183 66.0044L135.491 69.1489H144.275H153.06L153.368 66.0044M135.183 66.0044L134.764 61.7306M134.764 61.7306L134.573 59.786M153.368 66.0044L153.787 61.7306M153.787 61.7306L153.978 59.7859" stroke="#2855AD" stroke-width="0.534771"/>
<rect x="10.3025" y="158.6" width="48.9362" height="2.57559" rx="1.2878" stroke="#2855AD" stroke-width="1.2"/>
<rect x="12.134" y="161.176" width="45.2725" height="1.2878" rx="0.643898" stroke="#2855AD" stroke-width="1.2"/>
<rect x="13.0012" y="162.463" width="43.5385" height="5.15118" rx="0.643898" stroke="#2855AD" stroke-width="1.2"/>
<path d="M14.5046 167.615H55.0359V167.615C55.0359 169.748 53.3062 171.478 51.1725 171.478H18.368C16.2343 171.478 14.5046 169.748 14.5046 167.615V167.615Z" stroke="#2855AD" stroke-width="1.2"/>
<path d="M17.9316 171.478H51.6091V172.637C51.6091 173.704 50.7442 174.569 49.6774 174.569H19.8633C18.7965 174.569 17.9316 173.704 17.9316 172.637V171.478Z" stroke="#2855AD" stroke-width="1.2"/>
<rect x="19.7214" y="174.569" width="30.098" height="4.08668" stroke="#2855AD" stroke-width="1.2"/>
<rect x="18.5454" y="178.655" width="32.4502" height="2.57559" rx="1.2878" stroke="#2855AD" stroke-width="1.2"/>
<path d="M49.8184 181.231L50.4183 181.221L50.409 180.631H49.8184V181.231ZM53.8301 435.174V435.774H54.4396L54.43 435.165L53.8301 435.174ZM34.7705 435.174V434.574H34.1705V435.174H34.7705ZM34.7705 435.175V435.775H35.3705V435.175H34.7705ZM15.7109 435.175L15.111 435.166L15.1014 435.775H15.7109V435.175ZM19.7227 181.231V180.631H19.1321L19.1227 181.221L19.7227 181.231ZM49.8184 181.231L49.2184 181.24L53.2302 435.184L53.8301 435.174L54.43 435.165L50.4183 181.221L49.8184 181.231ZM53.8301 435.174V434.574H34.7705V435.174V435.774H53.8301V435.174ZM34.7705 435.174H34.1705V435.175H34.7705H35.3705V435.174H34.7705ZM34.7705 435.175V434.575H15.7109V435.175V435.775H34.7705V435.175ZM15.7109 435.175L16.3109 435.185L20.3226 181.24L19.7227 181.231L19.1227 181.221L15.111 435.166L15.7109 435.175ZM19.7227 181.231V181.831H49.8184V181.231V180.631H19.7227V181.231Z" fill="#2855AD"/>
<path d="M15.5261 434.771H25.3956M53.5141 434.771H44.1413M34.7685 434.771H25.3956M34.7685 434.771H44.1413M34.7685 434.771V181.231M25.3956 434.771L26.4671 181.231M44.1413 434.771L43.0698 181.231M49.7809 188.668L49.6733 181.231H43.0698M49.7809 188.668L50.1868 215.425M49.7809 188.668H19.4403M50.1868 215.425L50.5927 242.183M50.1868 215.425H19.0148M50.5927 242.183L50.9986 268.94M50.5927 242.183H18.5892M50.9986 268.94L51.4045 295.698M50.9986 268.94H18.1636M51.4045 295.698L51.8104 322.456M51.4045 295.698H17.7381M51.8104 322.456L52.2162 349.213M51.8104 322.456H17.3125M52.2162 349.213L52.6221 375.971M52.2162 349.213H16.8869M52.6221 375.971L53.028 402.728H16.0358L16.4613 375.971M52.6221 375.971H16.4613M16.4613 375.971L16.8869 349.213M16.8869 349.213L17.3125 322.456M17.3125 322.456L17.7381 295.698M17.7381 295.698L18.1636 268.94M18.1636 268.94L18.5892 242.183M18.5892 242.183L19.0148 215.425M19.0148 215.425L19.4403 188.668M19.4403 188.668L19.5532 181.231H26.4671M26.4671 181.231H34.7685M34.7685 181.231H43.0698" stroke="#2855AD" stroke-width="0.3" stroke-linecap="round"/>
<rect x="12.751" y="435.175" width="44.0388" height="2.57559" rx="1.2878" stroke="#2855AD" stroke-width="1.2"/>
<rect x="228.302" y="158.6" width="48.9362" height="2.57559" rx="1.2878" stroke="#2855AD" stroke-width="1.2"/>
<rect x="230.134" y="161.176" width="45.2725" height="1.2878" rx="0.643898" stroke="#2855AD" stroke-width="1.2"/>
<rect x="231.001" y="162.463" width="43.5385" height="5.15118" rx="0.643898" stroke="#2855AD" stroke-width="1.2"/>
<path d="M232.505 167.615H273.036V167.615C273.036 169.748 271.306 171.478 269.173 171.478H236.368C234.234 171.478 232.505 169.748 232.505 167.615V167.615Z" stroke="#2855AD" stroke-width="1.2"/>
<path d="M235.932 171.478H269.609V172.637C269.609 173.704 268.744 174.569 267.677 174.569H237.863C236.796 174.569 235.932 173.704 235.932 172.637V171.478Z" stroke="#2855AD" stroke-width="1.2"/>
<rect x="237.721" y="174.569" width="30.098" height="4.08668" stroke="#2855AD" stroke-width="1.2"/>
<rect x="236.545" y="178.655" width="32.4502" height="2.57559" rx="1.2878" stroke="#2855AD" stroke-width="1.2"/>
<path d="M267.818 181.231L268.418 181.221L268.409 180.631H267.818V181.231ZM271.83 435.174V435.774H272.44L272.43 435.165L271.83 435.174ZM252.771 435.174V434.574H252.171V435.174H252.771ZM252.771 435.175V435.775H253.371V435.175H252.771ZM233.711 435.175L233.111 435.166L233.101 435.775H233.711V435.175ZM237.723 181.231V180.631H237.132L237.123 181.221L237.723 181.231ZM267.818 181.231L267.218 181.24L271.23 435.184L271.83 435.174L272.43 435.165L268.418 181.221L267.818 181.231ZM271.83 435.174V434.574H252.771V435.174V435.774H271.83V435.174ZM252.771 435.174H252.171V435.175H252.771H253.371V435.174H252.771ZM252.771 435.175V434.575H233.711V435.175V435.775H252.771V435.175ZM233.711 435.175L234.311 435.185L238.323 181.24L237.723 181.231L237.123 181.221L233.111 435.166L233.711 435.175ZM237.723 181.231V181.831H267.818V181.231V180.631H237.723V181.231Z" fill="#2855AD"/>
<path d="M233.526 434.771H243.396M271.514 434.771H262.141M252.768 434.771H243.396M252.768 434.771H262.141M252.768 434.771V181.231M243.396 434.771L244.467 181.231M262.141 434.771L261.07 181.231M267.781 188.668L267.673 181.231H261.07M267.781 188.668L268.187 215.425M267.781 188.668H237.44M268.187 215.425L268.593 242.183M268.187 215.425H237.015M268.593 242.183L268.999 268.94M268.593 242.183H236.589M268.999 268.94L269.404 295.698M268.999 268.94H236.164M269.404 295.698L269.81 322.456M269.404 295.698H235.738M269.81 322.456L270.216 349.213M269.81 322.456H235.312M270.216 349.213L270.622 375.971M270.216 349.213H234.887M270.622 375.971L271.028 402.728H234.036L234.461 375.971M270.622 375.971H234.461M234.461 375.971L234.887 349.213M234.887 349.213L235.312 322.456M235.312 322.456L235.738 295.698M235.738 295.698L236.164 268.94M236.164 268.94L236.589 242.183M236.589 242.183L237.015 215.425M237.015 215.425L237.44 188.668M237.44 188.668L237.553 181.231H244.467M244.467 181.231H252.768M252.768 181.231H261.07" stroke="#2855AD" stroke-width="0.3" stroke-linecap="round"/>
<rect x="230.751" y="435.175" width="44.0388" height="2.57559" rx="1.2878" stroke="#2855AD" stroke-width="1.2"/>
</svg>
