<svg width="1280" height="1249" role="presentation" viewBox="0 0 1280 1249" fill="none" xmlns="http://www.w3.org/2000/svg">
<path opacity="0.2" d="M-699.939 -416.877V1248.29M-679.338 -416.877V1248.29L2163.62 -393.089M-679.338 -416.877L2163.62 1224.5L2122.42 1248.29M-679.338 -416.877L-720.54 -393.089L2122.42 1248.29M-658.737 -416.877V1248.29M-638.135 -416.877V1248.29L2163.62 -369.301M-638.135 -416.877L2163.62 1200.72L2081.21 1248.29M-638.135 -416.877L-720.54 -369.301L2081.21 1248.29M-617.534 -416.877V1248.29M-596.933 -416.877V1248.29M-596.933 -416.877L2163.62 1176.93L2040.01 1248.29M-596.933 -416.877L-720.54 -345.513L2040.01 1248.29M-596.933 1248.29L-720.54 1176.93L2040.01 -416.877M-596.933 1248.29L2163.62 -345.513M-576.332 -416.877V1248.29M-555.731 -416.877V1248.29L2163.62 -321.724M-555.731 -416.877L2163.62 1153.14L1998.81 1248.29M-555.731 -416.877L-720.54 -321.724L1998.81 1248.29M-535.13 -416.877V1248.29M-514.529 -416.877V1248.29L2163.62 -297.936M-514.529 -416.877L2163.62 1129.35L1957.61 1248.29M-514.529 -416.877L-720.54 -297.936L1957.61 1248.29M-493.928 -416.877V1248.29M-473.326 -416.877V1248.29M-473.326 -416.877L2163.62 1105.56L1916.41 1248.29M-473.326 -416.877L-720.54 -274.148L1916.41 1248.29M-473.326 1248.29L-720.54 1105.56L1916.41 -416.877M-473.326 1248.29L2163.62 -274.148M-452.725 -416.877V1248.29M-432.124 -416.877V1248.29L2163.62 -250.36M-432.124 -416.877L2163.62 1081.78L1875.2 1248.29M-432.124 -416.877L-720.54 -250.36L1875.2 1248.29M-411.523 -416.877V1248.29M-390.922 -416.877V1248.29L2163.62 -226.572M-390.922 -416.877L2163.62 1057.99L1834 1248.29M-390.922 -416.877L-720.54 -226.572L1834 1248.29M-370.321 -416.877V1248.29M-349.72 -416.877V1248.29L2163.62 -202.784L1792.8 -416.877M-349.72 -416.877L2163.62 1034.2L1792.8 1248.29M-349.72 -416.877L-720.54 -202.784L1792.8 1248.29M-329.118 -416.877V1248.29M-308.517 -416.877V1248.29L2163.62 -178.996M-308.517 -416.877L2163.62 1010.41M-308.517 -416.877L-720.54 -178.996L1751.6 1248.29M-287.916 -416.877V1248.29M-267.315 -416.877V1248.29L2163.62 -155.207M-267.315 -416.877L2163.62 986.623L1710.39 1248.29M-267.315 -416.877L-720.54 -155.207L1710.39 1248.29M-246.714 -416.877V1248.29M-226.113 -416.877V1248.29M-226.113 -416.877L2163.62 962.835L1669.19 1248.29M-226.113 -416.877L-720.54 -131.419L1669.19 1248.29M-226.113 1248.29L-720.54 962.835L1669.19 -416.877M-226.113 1248.29L2163.62 -131.419M-205.512 -416.877V1248.29M-184.91 -416.877V1248.29L2163.62 -107.631M-184.91 -416.877L2163.62 939.047M-184.91 -416.877L-720.54 -107.631L1627.99 1248.29M-164.309 -416.877V1248.29M-143.708 -416.877V1248.29L2163.62 -83.843M-143.708 -416.877L2163.62 915.259L1586.79 1248.29M-143.708 -416.877L-720.54 -83.843L1586.79 1248.29M-123.107 -416.877V1248.29M-102.506 -416.877V1248.29L2163.62 -60.0548M-102.506 -416.877L2163.62 891.471L1545.58 1248.29M-102.506 -416.877L-720.54 -60.0548L1545.58 1248.29M-81.9048 -416.877V1248.29M-61.3037 -416.877V1248.29L2163.62 -36.2667M-61.3037 -416.877L2163.62 867.683M-61.3037 -416.877L-720.54 -36.2667L1504.38 1248.29M-40.7025 -416.877V1248.29M-20.1014 -416.877V1248.29L2163.62 -12.4786L1463.18 -416.877M-20.1014 -416.877L2163.62 843.895L1463.18 1248.29M-20.1014 -416.877L-720.54 -12.4786L1463.18 1248.29M0.499711 -416.877V1248.29M21.1009 -416.877V1248.29L2163.62 11.3096L1421.98 -416.877M21.1009 -416.877L2163.62 820.106L1421.98 1248.29M21.1009 -416.877L-720.54 11.3096L1421.98 1248.29M41.702 -416.877V1248.29M62.3032 -416.877V1248.29L2163.62 35.0977M62.3032 -416.877L2163.62 796.318M62.3032 -416.877L-720.54 35.0977L1380.78 1248.29M82.9043 -416.877V1248.29M103.505 -416.877V1248.29M103.505 -416.877L2163.62 772.53L1339.57 1248.29M103.505 -416.877L-720.54 58.8859L1339.57 1248.29M103.505 1248.29L-720.54 772.53L1339.57 -416.877M103.505 1248.29L2163.62 58.8859L1339.57 -416.877M124.107 -416.877V1248.29M144.708 -416.877V1248.29M144.708 -416.877L2163.62 748.742L1298.37 1248.29M144.708 -416.877L-720.54 82.674L1298.37 1248.29M144.708 1248.29L-720.54 748.742L1298.37 -416.877M144.708 1248.29L2163.62 82.674M165.309 -416.877V1248.29M185.91 -416.877V1248.29L2163.62 106.462M185.91 -416.877L2163.62 724.954M185.91 -416.877L-720.54 106.462L1257.17 1248.29M206.511 -416.877V1248.29M227.112 -416.877V1248.29M227.112 -416.877L2163.62 701.166L1215.97 1248.29M227.112 -416.877L-720.54 130.25L1215.97 1248.29M227.112 1248.29L-720.54 701.166L1215.97 -416.877M227.112 1248.29L2163.62 130.25L1215.97 -416.877M247.713 -416.877V1248.29M268.314 -416.877V1248.29M268.314 -416.877L2163.62 677.378L1174.76 1248.29M268.314 -416.877L-720.54 154.038L1174.76 1248.29M268.314 1248.29L-720.54 677.378L1174.76 -416.877M268.314 1248.29L2163.62 154.038M288.916 -416.877V1248.29M309.517 -416.877V1248.29L2163.62 177.827M309.517 -416.877L2163.62 653.589M309.517 -416.877L-720.54 177.827L1133.56 1248.29M330.118 -416.877V1248.29M350.719 -416.877V1248.29M350.719 -416.877L2163.62 629.801L1092.36 1248.29M350.719 -416.877L-720.54 201.615L1092.36 1248.29M350.719 1248.29L-720.54 629.801L1092.36 -416.877M350.719 1248.29L2163.62 201.615L1092.36 -416.877M371.32 -416.877V1248.29M391.921 -416.877V1248.29L2163.62 225.403M391.921 -416.877L2163.62 606.013L1051.16 1248.29M391.921 -416.877L-720.54 225.403L1051.16 1248.29M412.522 -416.877V1248.29M433.124 -416.877V1248.29L2163.62 249.191M433.124 -416.877L2163.62 582.225M433.124 -416.877L-720.54 249.191L1009.96 1248.29M453.725 -416.877V1248.29M474.326 -416.877V1248.29M474.326 -416.877L2163.62 558.437L968.753 1248.29M474.326 -416.877L-720.54 272.979L968.753 1248.29M474.326 1248.29L-720.54 558.437L968.753 -416.877M474.326 1248.29L2163.62 272.979L968.753 -416.877M494.927 -416.877V1248.29M515.528 -416.877V1248.29L2163.62 296.767M515.528 -416.877L2163.62 534.649L927.551 1248.29M515.528 -416.877L-720.54 296.767L927.551 1248.29M536.129 -416.877V1248.29M556.73 -416.877V1248.29L2163.62 320.555M556.73 -416.877L2163.62 510.861L886.349 1248.29M556.73 -416.877L-720.54 320.555L886.349 1248.29M577.332 -416.877V1248.29M597.933 -416.877V1248.29M597.933 -416.877L2163.62 487.072L845.146 1248.29M597.933 -416.877L-720.54 344.344L845.146 1248.29M597.933 1248.29L-720.54 487.072L845.146 -416.877M597.933 1248.29L2163.62 344.344L845.146 -416.877M618.534 -416.877V1248.29M639.135 -416.877V1248.29L2163.62 368.132L803.944 -416.877M639.135 -416.877L2163.62 463.284L803.944 1248.29M639.135 -416.877L-720.54 368.132L803.944 1248.29M659.736 -416.877V1248.29M680.337 -416.877V1248.29M680.337 -416.877L2163.62 439.496L762.742 1248.29M680.337 -416.877L-720.54 391.92L762.742 1248.29M680.337 1248.29L-720.54 439.496L762.742 -416.877M680.337 1248.29L2163.62 391.92L762.742 -416.877M700.938 -416.877V1248.29M721.539 -416.877V1248.29M721.539 -416.877L2163.62 415.708L721.539 1248.29M721.539 -416.877L-720.54 415.708L721.539 1248.29M742.141 -416.877V1248.29M762.742 -416.877V1248.29M783.343 -416.877V1248.29M803.944 -416.877V1248.29M803.944 -416.877L-720.54 463.284L639.135 1248.29M824.545 -416.877V1248.29M845.146 -416.877V1248.29M865.747 -416.877V1248.29M886.349 -416.877V1248.29M886.349 -416.877L2163.62 320.555M886.349 -416.877L-720.54 510.861L556.73 1248.29M906.95 -416.877V1248.29M927.551 -416.877V1248.29M927.551 -416.877L2163.62 296.767M927.551 -416.877L-720.54 534.649L515.528 1248.29M948.152 -416.877V1248.29M968.753 -416.877V1248.29M989.354 -416.877V1248.29M1009.96 -416.877V1248.29M1009.96 -416.877L2163.62 249.191M1009.96 -416.877L-720.54 582.225L433.124 1248.29M1009.96 1248.29L2163.62 582.225M1030.56 -416.877V1248.29M1051.16 -416.877V1248.29M1051.16 -416.877L2163.62 225.403M1051.16 -416.877L-720.54 606.013L391.921 1248.29M1071.76 -416.877V1248.29M1092.36 -416.877V1248.29M1112.96 -416.877V1248.29M1133.56 -416.877V1248.29M1133.56 -416.877L2163.62 177.827M1133.56 -416.877L-720.54 653.589L309.517 1248.29M1133.56 1248.29L2163.62 653.589M1154.16 -416.877V1248.29M1174.76 -416.877V1248.29M1174.76 -416.877L2163.62 154.038M1195.37 -416.877V1248.29M1215.97 -416.877V1248.29M1236.57 -416.877V1248.29M1257.17 -416.877V1248.29M1257.17 -416.877L2163.62 106.462M1257.17 -416.877L-720.54 724.954L185.91 1248.29M1257.17 1248.29L2163.62 724.954M1277.77 -416.877V1248.29M1298.37 -416.877V1248.29M1298.37 -416.877L2163.62 82.674M1318.97 -416.877V1248.29M1339.57 -416.877V1248.29M1360.17 -416.877V1248.29M1380.78 -416.877V1248.29L2163.62 796.318M1380.78 -416.877L2163.62 35.0977M1380.78 -416.877L-720.54 796.318L62.3032 1248.29M1401.38 -416.877V1248.29M1421.98 -416.877V1248.29M1421.98 -416.877L-720.54 820.106L21.1009 1248.29M1442.58 -416.877V1248.29M1463.18 -416.877V1248.29M1463.18 -416.877L-720.54 843.895L-20.1014 1248.29M1483.78 -416.877V1248.29M1504.38 -416.877V1248.29L2163.62 867.683M1504.38 -416.877L2163.62 -36.2667M1504.38 -416.877L-720.54 867.683L-61.3037 1248.29M1524.98 -416.877V1248.29M1545.58 -416.877V1248.29M1545.58 -416.877L2163.62 -60.0548M1545.58 -416.877L-720.54 891.471L-102.506 1248.29M1566.19 -416.877V1248.29M1586.79 -416.877V1248.29M1586.79 -416.877L2163.62 -83.843M1586.79 -416.877L-720.54 915.259L-143.708 1248.29M1607.39 -416.877V1248.29M1627.99 -416.877V1248.29L2163.62 939.047M1627.99 -416.877L2163.62 -107.631M1627.99 -416.877L-720.54 939.047L-184.91 1248.29M1648.59 -416.877V1248.29M1669.19 -416.877V1248.29M1669.19 -416.877L2163.62 -131.419M1689.79 -416.877V1248.29M1710.39 -416.877V1248.29M1710.39 -416.877L2163.62 -155.207M1710.39 -416.877L-720.54 986.623L-267.315 1248.29M1731 -416.877V1248.29M1751.6 -416.877V1248.29L2163.62 1010.41M1751.6 -416.877L2163.62 -178.996M1751.6 -416.877L-720.54 1010.41L-308.517 1248.29M1772.2 -416.877V1248.29M1792.8 -416.877V1248.29M1792.8 -416.877L-720.54 1034.2L-349.72 1248.29M1813.4 -416.877V1248.29M1834 -416.877V1248.29M1834 -416.877L2163.62 -226.572M1834 -416.877L-720.54 1057.99L-390.922 1248.29M1854.6 -416.877V1248.29M1875.2 -416.877V1248.29M1875.2 -416.877L2163.62 -250.36M1875.2 -416.877L-720.54 1081.78L-432.124 1248.29M1895.8 -416.877V1248.29M1916.41 -416.877V1248.29M1916.41 -416.877L2163.62 -274.148M1937.01 -416.877V1248.29M1957.61 -416.877V1248.29M1957.61 -416.877L2163.62 -297.936M1957.61 -416.877L-720.54 1129.35L-514.529 1248.29M1978.21 -416.877V1248.29M1998.81 -416.877V1248.29M1998.81 -416.877L2163.62 -321.724M1998.81 -416.877L-720.54 1153.14L-555.731 1248.29M2019.41 -416.877V1248.29M2040.01 -416.877V1248.29M2040.01 -416.877L2163.62 -345.513M2060.61 -416.877V1248.29M2081.21 -416.877V1248.29M2081.21 -416.877L2163.62 -369.301M2081.21 -416.877L-720.54 1200.72L-638.135 1248.29M2101.82 -416.877V1248.29M2122.42 -416.877V1248.29M2122.42 -416.877L2163.62 -393.089M2122.42 -416.877L-720.54 1224.5L-679.338 1248.29M2143.02 -416.877V1248.29M-720.54 -416.877V1248.29L2163.62 -416.877V1248.29L-720.54 -416.877Z" stroke="#4774CC" stroke-width="0.4"/>
</svg>
