<svg width="346" height="692" viewBox="0 0 346 692" fill="none" xmlns="http://www.w3.org/2000/svg">
<g id="archui-hero" clip-path="url(#clip0_686_5310)">
<g id="react-logo">
<path id="Vector" d="M188.626 130.674C188.626 139.165 181.743 146.049 173.251 146.049C164.76 146.049 157.876 139.165 157.876 130.674M188.626 130.674C188.626 122.183 181.743 115.299 173.251 115.299C164.76 115.299 157.876 122.183 157.876 130.674M188.626 130.674H173.251M157.876 130.674H173.251M132.003 202.121C116.937 193.422 123.191 154.383 145.973 114.924C168.755 75.4644 199.437 50.5279 214.503 59.2264M132.003 202.121C147.069 210.819 177.751 185.883 200.533 146.424C223.314 106.964 229.569 67.9249 214.503 59.2264M132.003 202.121L173.251 130.674M214.503 59.2264L173.251 130.674M255.75 130.674C255.75 148.071 218.813 162.174 173.25 162.174C127.687 162.174 90.75 148.071 90.75 130.674C90.75 113.277 127.687 99.1738 173.25 99.1738C218.813 99.1738 255.75 113.277 255.75 130.674ZM214.503 202.121C199.437 210.819 168.755 185.883 145.973 146.424C123.191 106.965 116.937 67.9253 132.003 59.2268C147.069 50.5283 177.751 75.4648 200.533 114.924C223.314 154.383 229.569 193.422 214.503 202.121Z" stroke="#3561B9" stroke-width="0.375" stroke-dasharray="4.5 4.5"/>
<path id="Vector_2" d="M246.75 76.5L186.75 35.25" stroke="#2855AD" stroke-width="0.75"/>
<path id="Vector_3" d="M101.25 74.25L161.25 33" stroke="#2855AD" stroke-width="0.75"/>
<path id="Vector_4" d="M161.25 226.5L101.25 185.25" stroke="#2855AD" stroke-width="0.75"/>
<path id="Vector_5" d="M186.75 226.5L246.75 185.25" stroke="#2855AD" stroke-width="0.75"/>
<path id="Vector (Stroke)" d="M252 130.674C252 127.756 250.465 124.547 246.754 121.197C243.043 117.847 237.463 114.658 230.249 111.904C227.477 110.845 224.492 109.863 221.319 108.964C219.162 115.912 216.347 123.216 212.914 130.673C216.347 138.131 219.161 145.435 221.318 152.383C224.491 151.485 227.477 150.503 230.249 149.445C237.463 146.69 243.043 143.501 246.754 140.152C250.465 136.802 252 133.593 252 130.674ZM216.087 161.445C208.992 163.051 201.259 164.265 193.083 165.021C188.341 171.723 183.422 177.813 178.484 183.155C180.849 185.455 183.194 187.55 185.497 189.422C191.489 194.292 197.041 197.53 201.797 199.069C206.554 200.608 210.1 200.333 212.628 198.874C215.155 197.414 217.167 194.481 218.213 189.592C219.258 184.703 219.23 178.276 218.008 170.651C217.539 167.72 216.896 164.643 216.087 161.445ZM130.418 161.445C129.609 164.643 128.967 167.72 128.498 170.65C127.276 178.276 127.248 184.702 128.293 189.591C129.339 194.48 131.351 197.414 133.878 198.873C136.405 200.332 139.952 200.608 144.709 199.069C149.465 197.53 155.016 194.292 161.009 189.421C163.312 187.549 165.656 185.455 168.021 183.155C163.083 177.813 158.164 171.724 153.422 165.022C145.247 164.266 137.514 163.051 130.418 161.445ZM183.297 165.694C179.999 165.844 176.647 165.924 173.25 165.924C169.855 165.924 166.504 165.844 163.208 165.694C166.526 170.073 169.893 174.112 173.252 177.766C176.611 174.112 179.979 170.073 183.297 165.694ZM173.25 102.924C167.875 102.924 162.631 103.126 157.567 103.505C154.706 107.702 151.909 112.143 149.221 116.798C146.533 121.454 144.085 126.097 141.88 130.673C144.085 135.25 146.532 139.893 149.221 144.549C151.909 149.205 154.706 153.646 157.567 157.843C162.631 158.222 167.875 158.424 173.25 158.424C178.627 158.424 183.872 158.222 188.938 157.843C191.8 153.645 194.597 149.204 197.285 144.548C199.973 139.893 202.421 135.25 204.625 130.674C202.42 126.098 199.973 121.455 197.285 116.799C194.597 112.143 191.8 107.702 188.938 103.505C183.872 103.126 178.627 102.924 173.25 102.924ZM137.901 139.484C135.768 144.547 133.954 149.484 132.469 154.22C137.313 155.302 142.495 156.199 147.946 156.883C146.168 154.103 144.423 151.24 142.726 148.299C141.028 145.358 139.42 142.415 137.901 139.484ZM208.604 139.485C207.086 142.415 205.478 145.358 203.78 148.298C202.083 151.239 200.338 154.102 198.56 156.882C204.01 156.198 209.192 155.301 214.036 154.219C212.551 149.484 210.737 144.548 208.604 139.485ZM184.876 130.674C184.876 124.254 179.672 119.049 173.251 119.049C166.831 119.049 161.626 124.254 161.626 130.674C161.626 137.094 166.831 142.299 173.251 142.299C179.672 142.299 184.876 137.094 184.876 130.674ZM147.946 104.464C142.495 105.148 137.313 106.045 132.469 107.127C133.954 111.863 135.768 116.799 137.901 121.862C139.42 118.932 141.028 115.989 142.726 113.048C144.423 110.108 146.167 107.244 147.946 104.464ZM198.56 104.465C200.338 107.245 202.083 110.109 203.78 113.049C205.478 115.99 207.086 118.932 208.604 121.862C210.737 116.8 212.55 111.864 214.035 107.128C209.192 106.046 204.01 105.149 198.56 104.465ZM212.628 62.4739C210.1 61.0148 206.554 60.7395 201.797 62.2784C197.041 63.8171 191.489 67.0554 185.497 71.9258C183.194 73.7977 180.849 75.8922 178.484 78.1917C183.422 83.5336 188.341 89.6235 193.083 96.3258C201.259 97.0817 208.992 98.2968 216.087 99.9029C216.896 96.7047 217.539 93.627 218.008 90.6964C219.23 83.0713 219.258 76.6443 218.213 71.7559C217.167 66.8671 215.155 63.9331 212.628 62.4739ZM144.709 62.2791C139.952 60.7402 136.405 61.0154 133.878 62.4747C131.35 63.9339 129.339 66.8677 128.293 71.7567C127.248 76.6451 127.276 83.0719 128.498 90.6971C128.967 93.6272 129.609 96.7039 130.418 99.9014C137.513 98.2956 145.247 97.0815 153.422 96.3258C158.164 89.6237 163.082 83.5336 168.021 78.1917C165.656 75.8926 163.312 73.7982 161.009 71.9266C155.016 67.0561 149.465 63.8178 144.709 62.2791ZM173.252 83.5816C169.893 87.2353 166.525 91.274 163.208 95.6527C166.504 95.5026 169.855 95.4241 173.25 95.4241C176.647 95.4241 179.999 95.5024 183.297 95.6527C179.98 91.2738 176.611 87.2354 173.252 83.5816ZM94.5 130.674C94.5 133.593 96.0353 136.802 99.7463 140.152C103.457 143.501 109.037 146.69 116.251 149.445C119.025 150.504 122.012 151.486 125.186 152.385C127.343 145.437 130.158 138.132 133.591 130.673C130.158 123.215 127.343 115.911 125.186 108.963C122.011 109.862 119.025 110.845 116.251 111.904C109.037 114.658 103.457 117.847 99.7463 121.197C96.0352 124.547 94.5 127.756 94.5 130.674ZM192.376 130.674C192.376 141.237 183.814 149.799 173.251 149.799C162.689 149.799 154.126 141.237 154.126 130.674C154.126 120.112 162.689 111.549 173.251 111.549C183.814 111.549 192.376 120.112 192.376 130.674ZM259.5 130.674C259.5 136.454 256.418 141.532 251.78 145.719C247.141 149.906 240.639 153.505 232.924 156.451C229.937 157.591 226.739 158.643 223.356 159.6C224.219 163.01 224.908 166.306 225.414 169.465C226.72 177.619 226.854 185.05 225.547 191.16C224.24 197.271 221.384 202.479 216.378 205.369C211.372 208.259 205.434 208.129 199.488 206.205C193.543 204.282 187.175 200.45 180.766 195.242C178.284 193.224 175.773 190.98 173.252 188.529C170.731 190.98 168.221 193.225 165.74 195.242C159.331 200.45 152.963 204.281 147.018 206.204C141.072 208.128 135.134 208.259 130.128 205.369C125.122 202.479 122.266 197.27 120.959 191.16C119.652 185.049 119.786 177.618 121.092 169.464C121.598 166.306 122.286 163.01 123.148 159.602C119.764 158.644 116.564 157.592 113.576 156.451C105.861 153.505 99.3591 149.906 94.7205 145.719C90.0822 141.532 87 136.454 87 130.674C87 124.894 90.0822 119.817 94.7205 115.629C99.3592 111.442 105.861 107.842 113.576 104.897C116.564 103.755 119.764 102.703 123.149 101.745C122.287 98.3367 121.598 95.0409 121.092 91.8836C119.786 83.7293 119.652 76.2988 120.959 70.1878C122.266 64.0774 125.122 58.8696 130.128 55.9796C135.134 53.0896 141.072 53.2198 147.018 55.1431C152.963 57.0667 159.331 60.8975 165.74 66.106C168.221 68.1229 170.732 70.367 173.253 72.8179C175.774 70.367 178.284 68.123 180.766 66.106C187.175 60.8975 193.542 57.0659 199.488 55.1424C205.434 53.2191 211.372 53.0889 216.378 55.9788C221.384 58.8688 224.24 64.0774 225.547 70.1878C226.854 76.2987 226.72 83.7288 225.414 91.8829C224.908 95.0408 224.219 98.3375 223.356 101.746C226.739 102.704 229.937 103.756 232.924 104.897C240.639 107.842 247.141 111.442 251.78 115.629C256.418 119.817 259.5 124.894 259.5 130.674Z" stroke="#173E88" stroke-width="1.125"/>
<path id="Vector (Stroke)_2" fill-rule="evenodd" clip-rule="evenodd" d="M172.875 149.799C183.437 149.799 192 141.236 192 130.674C192 120.112 183.437 111.549 172.875 111.549C162.313 111.549 153.75 120.112 153.75 130.674C153.75 141.236 162.313 149.799 172.875 149.799Z" stroke="#173E88" stroke-width="2.25"/>
<path id="Vector (Stroke)_3" d="M259.5 130.674C259.5 136.454 256.418 141.532 251.78 145.719C247.141 149.906 240.639 153.505 232.924 156.451C229.937 157.591 226.739 158.643 223.356 159.6C224.219 163.01 224.908 166.306 225.414 169.465C226.72 177.619 226.854 185.049 225.547 191.16C224.24 197.271 221.384 202.479 216.378 205.369C211.372 208.259 205.434 208.129 199.488 206.205C193.543 204.282 187.175 200.45 180.766 195.242C178.284 193.224 175.773 190.98 173.252 188.529C170.731 190.98 168.221 193.225 165.74 195.242C159.331 200.45 152.963 204.281 147.018 206.204C141.072 208.128 135.134 208.259 130.128 205.369C125.122 202.479 122.266 197.27 120.959 191.16C119.652 185.049 119.786 177.618 121.092 169.464C121.598 166.306 122.286 163.01 123.148 159.602C119.764 158.644 116.564 157.592 113.576 156.451C105.861 153.505 99.3591 149.906 94.7205 145.719C90.0822 141.532 87 136.454 87 130.674C87 124.894 90.0822 119.817 94.7205 115.629C99.3592 111.442 105.861 107.842 113.576 104.897C116.564 103.755 119.764 102.703 123.149 101.745C122.287 98.3367 121.598 95.0409 121.092 91.8836C119.786 83.7292 119.652 76.2988 120.959 70.1878C122.266 64.0774 125.122 58.8696 130.128 55.9796C135.134 53.0896 141.072 53.2198 147.018 55.1431C152.963 57.0667 159.331 60.8975 165.74 66.106C168.221 68.1229 170.732 70.367 173.253 72.8179C175.774 70.367 178.284 68.123 180.766 66.106C187.175 60.8975 193.542 57.0659 199.488 55.1424C205.434 53.2191 211.372 53.0889 216.378 55.9788C221.384 58.8688 224.24 64.0774 225.547 70.1878C226.854 76.2987 226.72 83.7288 225.414 91.8829C224.908 95.0408 224.219 98.3375 223.356 101.746C226.739 102.704 229.937 103.756 232.924 104.897C240.639 107.842 247.141 111.442 251.78 115.629C256.418 119.817 259.5 124.894 259.5 130.674Z" stroke="#173E88" stroke-width="2.25"/>
<line id="Line 124" x1="259.875" y1="100.5" x2="259.875" y2="160.5" stroke="#2855AD" stroke-width="0.75"/>
<line id="Line 125" x1="87.375" y1="100.5" x2="87.375" y2="160.5" stroke="#2855AD" stroke-width="0.75"/>
</g>
<g id="Left Column">
<g id="Column">
<g id="column">
<rect id="abacus" x="104.75" y="309" width="136.562" height="7.18746" rx="3.59373" stroke="#173E88" stroke-width="0.596934"/>
<rect id="abacus_2" x="109.861" y="316.188" width="126.338" height="3.59373" rx="1.79687" stroke="#173E88" stroke-width="0.596934"/>
<rect id="echinus" x="112.281" y="319.781" width="121.499" height="14.3749" rx="1.79687" stroke="#173E88" stroke-width="0.596934"/>
<path id="echinus_2" d="M116.477 334.156H229.583V334.156C229.583 340.11 224.757 344.937 218.802 344.937H127.258C121.303 344.937 116.477 340.11 116.477 334.156V334.156Z" stroke="#173E88" stroke-width="0.596934"/>
<path id="necking" d="M126.041 344.937H220.021V348.172C220.021 351.149 217.608 353.562 214.631 353.562H131.432C128.454 353.562 126.041 351.149 126.041 348.172V344.937Z" stroke="#173E88" stroke-width="0.596934"/>
<rect id="necking_2" x="131.035" y="353.562" width="83.9917" height="11.4043" stroke="#173E88" stroke-width="0.596934"/>
<rect id="necking_3" x="127.752" y="364.967" width="90.5557" height="7.18746" rx="3.59373" stroke="#173E88" stroke-width="0.596934"/>
<g id="shaft">
<path id="Union" d="M173.029 1080.81V1081.11H173.328V1080.81H173.029ZM119.842 1080.81L119.543 1080.81L119.539 1081.11H119.842V1080.81ZM131.037 372.155V371.857H130.743L130.739 372.15L131.037 372.155ZM173.029 372.155H173.328V371.857H173.029V372.155ZM215.023 372.154L215.322 372.149L215.317 371.856H215.023V372.154ZM226.219 1080.81V1081.11H226.522L226.517 1080.81L226.219 1080.81ZM173.031 1080.81H172.733V1081.11H173.031V1080.81ZM173.031 372.154V371.856H172.733V372.154H173.031ZM173.029 1080.81V1080.51H119.842V1080.81V1081.11H173.029V1080.81ZM119.842 1080.81L120.14 1080.82L131.336 372.16L131.037 372.155L130.739 372.15L119.543 1080.81L119.842 1080.81ZM131.037 372.155V372.453H173.029V372.155V371.857H131.037V372.155ZM173.029 372.155H172.731V1080.81H173.029H173.328V372.155H173.029ZM215.023 372.154L214.725 372.159L225.92 1080.82L226.219 1080.81L226.517 1080.81L215.322 372.149L215.023 372.154ZM226.219 1080.81V1080.51H173.031V1080.81V1081.11H226.219V1080.81ZM173.031 1080.81H173.33V372.154H173.031H172.733V1080.81H173.031ZM173.031 372.154V372.453H215.023V372.154V371.856H173.031V372.154Z" fill="#173E88"/>
<path id="adn" d="M120.027 1079.69H147.569M226.037 1079.69H199.881M173.725 1079.69H147.569M173.725 1079.69H199.881M173.725 1079.69V372.154M147.569 1079.69L150.559 372.154M199.881 1079.69L196.891 372.154M215.619 392.908L215.319 372.154H196.891M215.619 392.908L216.752 467.577M215.619 392.908H130.95M216.752 467.577L217.884 542.247M216.752 467.577H129.763M217.884 542.247L219.017 616.917M217.884 542.247H128.575M219.017 616.917L220.15 691.586M219.017 616.917H127.388M220.15 691.586L221.282 766.256M220.15 691.586H126.2M221.282 766.256L222.415 840.926M221.282 766.256H125.012M222.415 840.926L223.548 915.596M222.415 840.926H123.825M223.548 915.596L224.68 990.265H121.45L122.637 915.596M223.548 915.596H122.637M122.637 915.596L123.825 840.926M123.825 840.926L125.012 766.256M125.012 766.256L126.2 691.586M126.2 691.586L127.388 616.917M127.388 616.917L128.575 542.247M128.575 542.247L129.763 467.577M129.763 467.577L130.95 392.908M130.95 392.908L131.265 372.154H150.559M150.559 372.154H173.725M173.725 372.154H196.891" stroke="#173E88" stroke-width="0.596934" stroke-linecap="round"/>
</g>
</g>
<g id="Column Details">
<path id="Vector_6" d="M235.498 316.187L238.814 316.187C240.799 316.187 242.408 314.578 242.408 312.594C242.408 310.609 240.799 309 238.814 309H109.439C107.455 309 105.846 310.609 105.846 312.594C105.846 314.578 107.455 316.187 109.439 316.187L112.754 316.187M235.498 316.187H112.754M235.498 316.187V316.187ZM235.498 316.187C236.485 316.194 237.295 316.996 237.295 317.984C237.295 318.977 236.491 319.781 235.498 319.781L233.079 319.781C234.072 319.781 234.876 320.586 234.876 321.578V332.359C234.876 333.352 234.072 334.156 233.079 334.156L230.68 334.156C230.68 340.104 225.863 344.927 219.918 344.937H221.117V348.172C221.117 351.016 218.915 353.36 216.122 353.562M112.754 316.187V316.187ZM112.754 316.187C111.768 316.194 110.957 316.996 110.957 317.984C110.957 318.977 111.762 319.781 112.754 319.781L115.174 319.781C114.182 319.781 113.377 320.586 113.377 321.578V332.359C113.377 333.352 114.182 334.156 115.174 334.156L117.573 334.156C117.573 340.104 122.389 344.927 128.334 344.937H127.136V348.172C127.136 351.016 129.338 353.36 132.13 353.562M132.13 353.562C132.217 353.569 132.305 353.567 132.393 353.564M132.13 353.562L132.393 353.564M132.13 353.562H132.497M132.13 353.562V364.967M132.393 353.564C132.427 353.564 132.462 353.563 132.497 353.562M132.393 353.564L132.497 353.562M215.756 353.562C215.791 353.563 215.825 353.564 215.86 353.564M215.756 353.562L215.86 353.564M215.756 353.562H216.122M215.86 353.564C215.948 353.567 216.035 353.569 216.122 353.562M215.86 353.564L216.122 353.562M216.122 353.562V364.967M132.13 364.967L132.333 364.965M132.13 364.967C132.181 364.965 132.277 364.964 132.333 364.965M132.13 364.967C132.13 364.967 132.117 364.967 132.13 364.967ZM132.13 364.967C132.188 364.962 132.263 364.963 132.333 364.965M132.13 364.967L132.413 364.967M132.13 364.967C130.291 365.125 128.849 366.68 128.849 368.56C128.849 370.545 130.458 372.154 132.443 372.154H215.811C217.796 372.154 219.405 370.545 219.405 368.56C219.405 366.68 217.962 365.124 216.122 364.967M132.333 364.965L132.413 364.967M132.333 364.965C132.36 364.966 132.387 364.966 132.413 364.967M132.333 364.965V364.965ZM215.841 364.967L215.921 364.965M215.841 364.967C215.866 364.966 215.893 364.966 215.921 364.965M215.841 364.967L216.122 364.967M215.921 364.965L216.122 364.967M215.921 364.965C215.99 364.963 216.064 364.962 216.122 364.967" stroke="#173E88" stroke-width="1.7908"/>
<g id="shaft_2">
<path id="adn_2" d="M148.667 1079.69H174.823H200.979H227.135L224.645 915.598L223.513 840.928L222.38 766.258L221.247 691.588L220.115 616.919L218.982 542.249L217.849 467.579L216.717 392.909L216.416 372.156H197.989H174.823H151.657H132.363L132.048 392.909L130.86 467.579L129.673 542.249L128.485 616.919L127.298 691.588L126.11 766.258L124.922 840.928L123.735 915.598L121.125 1079.69H148.667Z" stroke="#173E88" stroke-width="1.7908" stroke-linecap="round"/>
</g>
</g>
</g>
<g id="Axis">
<line id="Line 6" x1="173.5" y1="129" x2="173.5" y2="1170" stroke="#3561B9" stroke-dasharray="10 10"/>
</g>
</g>
</g>
<defs>
<clipPath id="clip0_686_5310">
<rect width="346" height="692" fill="white"/>
</clipPath>
</defs>
</svg>
